<svg xmlns="http://www.w3.org/2000/svg" viewBox="0 0 279.45 100.3"><defs><style>.cls-1{fill:#fff;}</style></defs><title>Asset 2</title><g id="Layer_2" data-name="Layer 2"><g id="Layer_1-2" data-name="Layer 1"><path class="cls-1" d="M198.52,97.19c0-2.08.84-3.11,2.54-3.11s2.6,1,2.6,3.11-.87,3.11-2.6,3.11S198.52,99.26,198.52,97.19Z"/><path class="cls-1" d="M229.18,64.5q7.23,0,10.9,4.55t3.67,13.31q0,8.61-3.86,13.27t-10.84,4.67a14.2,14.2,0,0,1-6.63-1.53,11.56,11.56,0,0,1-4.67-4.31h-.28l-.89,5.2h-2V50.28h3.14V62.69c0,1.86,0,3.57-.12,5.14l-.1,2.7h.22A12.53,12.53,0,0,1,222.5,66,14.11,14.11,0,0,1,229.18,64.5Zm-.06,2.85q-6.1,0-8.73,3.49t-2.64,11.52v.54q0,7.81,2.75,11.21t8.55,3.39q5.65,0,8.51-4t2.85-11.25Q240.41,67.35,229.12,67.35Z"/><path class="cls-1" d="M267.23,100.3q-7.51,0-11.72-4.64t-4.21-13q0-8.25,4.06-13.22a13.41,13.41,0,0,1,10.95-5,11.8,11.8,0,0,1,9.62,4.25q3.52,4.25,3.52,11.55v2.54H254.6q.06,7.11,3.32,10.85t9.31,3.75a29.36,29.36,0,0,0,5.19-.41,32.17,32.17,0,0,0,5.67-1.78v2.86a25.93,25.93,0,0,1-5.4,1.73A30.56,30.56,0,0,1,267.23,100.3Zm-.92-33a10.34,10.34,0,0,0-8,3.28q-3,3.29-3.52,9.48h21.33q0-6-2.6-9.38A8.58,8.58,0,0,0,266.31,67.29Z"/><path class="cls-1" d="M42.65,23.77A17.62,17.62,0,1,0,25,41.38,17.61,17.61,0,0,0,42.65,23.77"/><path class="cls-1" d="M50.3,1.46V46.09a1.45,1.45,0,0,0,2.48,1L74.41,25.48a2.42,2.42,0,0,0,0-3.43L52.79.43a1.46,1.46,0,0,0-2.49,1"/><path class="cls-1" d="M50.07,98.71V51.51a1.92,1.92,0,0,0-1.92-1.92H1A.94.94,0,0,0,.28,51.2L48.46,99.38a.94.94,0,0,0,1.61-.67"/><path class="cls-1" d="M89.28,98.59a1.89,1.89,0,0,1-3.39,0L64.18,50.72A.85.85,0,0,1,65,49.59H75.07a1.94,1.94,0,0,1,1.77,1.2L87.66,77.66,98.47,50.79a1.93,1.93,0,0,1,1.77-1.2h10.11a.79.79,0,0,1,.71,1.13Z"/><rect class="cls-1" x="122.3" y="49.59" width="11.31" height="49.5" rx="1.27"/><path class="cls-1" d="M176,84c0-1.48-.71-4.59-5.59-4.73h-8.55v9.26h8.41c4.95,0,5.73-3.4,5.73-4.53m0-19.3c0-1.13-.78-4.67-5.73-4.67h-8.41v9.83h8.55c4.88-.14,5.59-3.82,5.59-5.16M187.47,84c0,6.72-4.17,15.06-17.89,15.06H151.9a1.26,1.26,0,0,1-1.27-1.27V50.86a1.26,1.26,0,0,1,1.27-1.27h17.68c13.72,0,17.89,8.41,17.89,15.13a11.36,11.36,0,0,1-6.37,9.54A10.44,10.44,0,0,1,187.47,84"/></g></g></svg>